<?xml version="1.0" encoding="UTF-8" standalone="no"?>
<svg
   xmlns:dc="http://purl.org/dc/elements/1.1/"
   xmlns:cc="http://creativecommons.org/ns#"
   xmlns:rdf="http://www.w3.org/1999/02/22-rdf-syntax-ns#"
   xmlns:svg="http://www.w3.org/2000/svg"
   xmlns="http://www.w3.org/2000/svg"
   xmlns:xlink="http://www.w3.org/1999/xlink"
   xmlns:sodipodi="http://sodipodi.sourceforge.net/DTD/sodipodi-0.dtd"
   xmlns:inkscape="http://www.inkscape.org/namespaces/inkscape"
   width="1150"
   height="800"
   viewBox="0 0 304.27082 211.66667"
   version="1.1"
   id="svg3493"
   inkscape:version="1.0.1 (c497b03c, 2020-09-10)"
   sodipodi:docname="ccmcBallLogo.svg"
   inkscape:export-filename="/Users/rmullinix/Documents/CCMC/Logos/ccmcBallLogo.png"
   inkscape:export-xdpi="90"
   inkscape:export-ydpi="90">
  <defs
     id="defs3487">
    <filter
       inkscape:collect="always"
       id="filter7073"
       x="-0.1080228"
       width="1.2160456"
       y="-0.10797721"
       height="1.2159544">
      <feGaussianBlur
         inkscape:collect="always"
         stdDeviation="3.3307031"
         id="feGaussianBlur7075" />
    </filter>
    <radialGradient
       inkscape:collect="always"
       xlink:href="#linearGradient7057"
       id="radialGradient3862"
       gradientUnits="userSpaceOnUse"
       cx="465.36859"
       cy="570.04102"
       fx="465.36859"
       fy="570.04102"
       r="45.937317" />
    <linearGradient
       id="linearGradient7057">
      <stop
         style="stop-color:#ffffff;stop-opacity:1;"
         offset="0"
         id="stop7059" />
      <stop
         id="stop7067"
         offset="0.29674944"
         style="stop-color:#ffffff;stop-opacity:1;" />
      <stop
         id="stop7065"
         offset="0.4222973"
         style="stop-color:#fee5c2;stop-opacity:1;" />
      <stop
         style="stop-color:#efba71;stop-opacity:1;"
         offset="1"
         id="stop7061" />
    </linearGradient>
    <filter
       inkscape:collect="always"
       id="filter6983">
      <feGaussianBlur
         inkscape:collect="always"
         stdDeviation="1.333464"
         id="feGaussianBlur6985" />
    </filter>
    <filter
       inkscape:collect="always"
       id="filter7291">
      <feGaussianBlur
         inkscape:collect="always"
         stdDeviation="1.0679982"
         id="feGaussianBlur7293" />
    </filter>
    <filter
       inkscape:collect="always"
       id="filter7279">
      <feGaussianBlur
         inkscape:collect="always"
         stdDeviation="1.0679982"
         id="feGaussianBlur7281" />
    </filter>
    <filter
       inkscape:collect="always"
       id="filter7283">
      <feGaussianBlur
         inkscape:collect="always"
         stdDeviation="1.0679982"
         id="feGaussianBlur7285" />
    </filter>
    <filter
       inkscape:collect="always"
       id="filter7287">
      <feGaussianBlur
         inkscape:collect="always"
         stdDeviation="1.0679982"
         id="feGaussianBlur7289" />
    </filter>
    <radialGradient
       inkscape:collect="always"
       xlink:href="#linearGradient7301"
       id="radialGradient3864"
       gradientUnits="userSpaceOnUse"
       cx="533.70367"
       cy="559.99036"
       fx="533.70367"
       fy="559.99036"
       r="7.2358508" />
    <linearGradient
       id="linearGradient7301">
      <stop
         style="stop-color:#fff9f9;stop-opacity:1;"
         offset="0"
         id="stop7303" />
      <stop
         style="stop-color:#000000;stop-opacity:1;"
         offset="1"
         id="stop7305" />
    </linearGradient>
  </defs>
  <sodipodi:namedview
     id="base"
     pagecolor="#ffffff"
     bordercolor="#666666"
     borderopacity="1.0"
     inkscape:pageopacity="0.0"
     inkscape:pageshadow="2"
     inkscape:zoom="0.51134962"
     inkscape:cx="561.25983"
     inkscape:cy="560"
     inkscape:document-units="mm"
     inkscape:current-layer="g3836"
     inkscape:document-rotation="0"
     showgrid="false"
     units="px"
     height="793.70079px"
     inkscape:window-width="1543"
     inkscape:window-height="1186"
     inkscape:window-x="0"
     inkscape:window-y="23"
     inkscape:window-maximized="0" />
  <metadata
     id="metadata3490">
    <rdf:RDF>
      <cc:Work
         rdf:about="">
        <dc:format>image/svg+xml</dc:format>
        <dc:type
           rdf:resource="http://purl.org/dc/dcmitype/StillImage" />
        <dc:title></dc:title>
      </cc:Work>
    </rdf:RDF>
  </metadata>
  <g
     inkscape:label="Layer 1"
     inkscape:groupmode="layer"
     id="layer1">
    <g
       id="g3836"
       transform="matrix(1.190389,0,0,1.190389,-653.45713,-611.87726)"
       inkscape:export-filename="/Users/rmullinix/Desktop/ccmc_vector.png"
       inkscape:export-xdpi="90"
       inkscape:export-ydpi="90"
       style="display:inline">
      <path
         id="path3838"
         d="m 669.5625,519.6875 c -44.85104,1.13675 -80.9375,37.87736 -80.9375,83 0,45.83888 37.25487,83.0625 83.09375,83.0625 45.83887,0 83,-37.22362 83,-83.0625 0,-45.83887 -37.16113,-83 -83,-83 -0.71623,0 -1.44433,-0.018 -2.15625,0 z"
         style="color:#000000;font-style:normal;font-variant:normal;font-weight:normal;font-stretch:normal;font-size:medium;line-height:normal;font-family:Sans;-inkscape-font-specification:Sans;text-indent:0;text-align:start;text-decoration:none;text-decoration-line:none;letter-spacing:normal;word-spacing:normal;text-transform:none;writing-mode:lr-tb;direction:ltr;baseline-shift:baseline;text-anchor:start;display:inline;overflow:visible;visibility:visible;fill:#e6982b;fill-opacity:1;stroke:none;stroke-width:2.19388;marker:none;enable-background:accumulate"
         inkscape:connector-curvature="0" />
      <circle
         transform="matrix(1.1532258,0,0,1.1532258,-87.207159,-70.168376)"
         id="path3840"
         style="color:#000000;display:inline;overflow:visible;visibility:visible;fill:#dd8a33;fill-opacity:1;fill-rule:evenodd;stroke:none;stroke-width:4;marker:none;enable-background:accumulate"
         cx="658.04895"
         cy="583.47906"
         r="25.635586" />
      <path
         id="path3842"
         d="m 671.6875,565.6875 c -20.43797,0 -37,16.59328 -37,37.03125 0,20.43797 16.56203,37 37,37 20.43797,0 37,-16.56203 37,-37 0,-20.43797 -16.56203,-37.03125 -37,-37.03125 z m 0,8.6875 c 15.64247,0 28.34375,12.70128 28.34375,28.34375 0,15.64247 -12.70128,28.3125 -28.34375,28.3125 -15.64247,0 -28.3125,-12.67003 -28.3125,-28.3125 0,-15.64247 12.67003,-28.34375 28.3125,-28.34375 z"
         style="color:#000000;display:inline;overflow:visible;visibility:visible;fill:#ffffff;fill-opacity:1;fill-rule:evenodd;stroke:none;stroke-width:0.5;marker:none;filter:url(#filter7073);enable-background:accumulate"
         inkscape:connector-curvature="0" />
      <circle
         transform="matrix(0.46511631,0,0,0.46511631,455.24318,337.57033)"
         id="path3844"
         style="color:#000000;display:inline;overflow:visible;visibility:visible;fill:url(#radialGradient3862);fill-opacity:1;fill-rule:evenodd;stroke:none;stroke-width:0.5;marker:none;filter:url(#filter6983);enable-background:accumulate"
         cx="465.36859"
         cy="570.04102"
         r="44.448799" />
      <path
         id="path3846"
         d="m 692.58357,529.01435 c -29.20519,-0.29022 -36.40526,19.59263 -35.15625,47.21875 l 3.3125,-0.40625 c -0.30458,-22.70576 0.30697,-43.01447 34.71875,-46.71875 -0.98838,-0.0518 -1.9329,-0.0844 -2.875,-0.0937 z"
         style="fill:#ffffff;fill-opacity:0.355932;stroke:none;filter:url(#filter7291)"
         inkscape:connector-curvature="0" />
      <path
         transform="matrix(1.1664093,0,0,1,-116.39644,0)"
         id="path3848"
         d="m 699.45857,593.26435 c 0.45949,1.20346 0.85341,2.44654 1.15625,3.71875 17.90049,3.91814 31.80278,11.4394 29.65625,40.65625 6.52809,-27.51932 -7.57631,-39.4019 -30.8125,-44.375 z"
         style="fill:#ffffff;fill-opacity:0.355932;stroke:none;filter:url(#filter7279)"
         inkscape:connector-curvature="0" />
      <path
         transform="matrix(1,0,0,1.1495477,0,-94.633119)"
         id="path3850"
         d="m 679.39607,632.7956 c -1.01625,0.27806 -2.03741,0.54819 -3.09375,0.71875 0.81149,14.40866 -4.22173,26.68262 -27.59375,34.21875 23.67977,-3.63556 31.38478,-16.78015 30.6875,-34.9375 z"
         style="fill:#ffffff;fill-opacity:0.355932;stroke:none;filter:url(#filter7283)"
         inkscape:connector-curvature="0" />
      <path
         id="path3852"
         d="m 603.61482,575.4206 c -0.72648,28.2353 15.47786,36.98361 39.1875,37.09375 -0.32785,-1.0998 -0.58043,-2.22616 -0.78125,-3.375 -18.77696,0.002 -34.42466,-4.15053 -38.40625,-33.71875 z"
         style="fill:#ffffff;fill-opacity:0.355932;stroke:none;filter:url(#filter7287)"
         inkscape:connector-curvature="0" />
      <path
         id="path3854"
         d="m 669.5625,519.6875 c -44.85104,1.13675 -80.9375,37.87736 -80.9375,83 0,45.83888 37.25487,83.0625 83.09375,83.0625 45.83887,0 83,-37.22362 83,-83.0625 0,-14.79059 -3.90434,-28.65856 -10.6875,-40.6875 -1.15454,0.64519 -2.30311,1.28499 -3.46875,1.90625 6.45951,11.45565 10.15625,24.68043 10.15625,38.78125 0,43.67712 -35.32289,79.09375 -79,79.09375 -43.67712,0 -79.03125,-35.41663 -79.03125,-79.09375 0,-43.67711 35.35413,-79.03125 79.03125,-79.03125 13.45977,0 26.10019,3.35804 37.1875,9.28125 0.61858,-1.17464 1.2646,-2.33611 1.90625,-3.5 -11.65189,-6.23445 -24.95812,-9.75 -39.09375,-9.75 -0.71623,0 -1.44433,-0.018 -2.15625,0 z m 45.59375,12.25 c -0.57905,1.20675 -1.13602,2.43766 -1.6875,3.65625 9.0974,5.67192 16.94075,13.16371 23.0625,21.9375 1.20682,-0.58756 2.39835,-1.20041 3.59375,-1.8125 -6.57363,-9.55614 -15.07105,-17.68835 -24.96875,-23.78125 z"
         style="color:#000000;font-style:normal;font-variant:normal;font-weight:normal;font-stretch:normal;font-size:medium;line-height:normal;font-family:Sans;-inkscape-font-specification:Sans;text-indent:0;text-align:start;text-decoration:none;text-decoration-line:none;letter-spacing:normal;word-spacing:normal;text-transform:none;writing-mode:lr-tb;direction:ltr;baseline-shift:baseline;text-anchor:start;display:inline;overflow:visible;visibility:visible;fill:#000000;fill-opacity:1;stroke:none;stroke-width:2.19388;marker:none;enable-background:accumulate"
         inkscape:connector-curvature="0" />
      <circle
         transform="matrix(0.74285714,0,0,0.74285714,314.71523,144.53823)"
         id="path3856"
         style="color:#000000;display:inline;overflow:visible;visibility:visible;fill:url(#radialGradient3864);fill-opacity:1;stroke:none;stroke-width:4;marker:none;enable-background:accumulate"
         cx="536.48669"
         cy="558.87714"
         r="7.2358508" />
      <path
         sodipodi:nodetypes="ccc"
         inkscape:connector-curvature="0"
         id="path3858"
         d="m 721.31098,515.04856 c -61.65138,102.13337 32.47219,42.39954 75.25285,10.13019 -51.47007,29.01115 -125.19476,84.1258 -75.25285,-10.13019 z"
         style="fill:#000000;fill-opacity:1;stroke:none" />
    </g>
  </g>
</svg>
